# This file uses centimeters as units for non-parametric coordinates.

mtllib Planet_LOW.mtl
g default
v 0.000000 -0.891007 -0.453991
v -0.048341 -0.987688 0.148778
v 0.431771 -0.891007 -0.140291
v -0.431771 -0.891007 -0.140291
v -0.431771 -0.891007 0.140291
v 0.475529 -0.809017 -0.345492
v -0.453991 -0.891007 0.000000
v -0.475528 -0.809017 0.345492
v 0.475528 -0.809017 0.345492
v 0.431771 -0.891007 0.140291
v 0.453991 -0.891007 0.000000
v 0.415627 -0.707107 -0.572062
v -0.415627 -0.707107 -0.572062
v -0.475528 -0.809017 -0.345492
v -0.559017 -0.809017 -0.181636
v -0.559017 -0.809017 0.181636
v -0.415627 -0.707107 0.572061
v 0.415627 -0.707107 0.572061
v 0.559017 -0.809017 0.181636
v 0.559017 -0.809017 -0.181636
v 0.572062 -0.707107 -0.415627
v -0.572062 -0.707107 -0.415627
v -0.572062 -0.707107 0.415627
v 0.572061 -0.707107 0.415627
v 0.523721 -0.453991 -0.720840
v 0.275336 -0.453991 -0.847398
v 0.000000 -0.453991 -0.891007
v -0.275336 -0.453991 -0.847398
v -0.523721 -0.453991 -0.720840
v -0.987689 -0.156434 0.000000
v -0.523721 -0.453991 0.720840
v -0.275336 -0.453991 0.847398
v -0.000000 -0.453991 0.891007
v 0.275336 -0.453991 0.847398
v 0.523721 -0.453991 0.720840
v 0.904509 -0.309017 0.293893
v 0.951057 0.000000 -0.309017
v -0.799057 -0.156434 -0.580549
v -0.904509 -0.309017 0.293893
v 0.799057 -0.156434 -0.580549
v 0.559017 -0.309017 -0.769421
v -0.305213 -0.156434 -0.939348
v -0.799057 -0.156434 0.580549
v -0.000000 -0.156434 0.987688
v 0.799057 0.156434 0.580549
v -0.587785 0.000000 -0.809017
v -0.587785 0.000000 0.809017
v 0.587785 0.000000 0.809017
v 0.587786 0.000000 -0.809017
v 0.305213 0.156434 -0.939348
v -0.904509 0.309017 -0.293893
v -0.000000 0.156434 0.987688
v 0.904509 0.309017 0.293893
v 0.720840 0.453991 -0.523721
v -0.275336 0.453991 -0.847398
v -0.720840 0.453991 -0.523721
v -0.987689 0.156434 0.000000
v -0.904509 0.309017 0.293893
v -0.559017 0.309017 0.769421
v 0.275336 0.453991 0.847398
v 0.559017 0.309017 0.769421
v 0.987688 0.156434 0.000000
v 0.523721 0.453991 -0.720840
v -0.523721 0.453991 -0.720840
v 0.275336 0.453991 -0.847398
v 0.000000 0.453991 -0.891007
v -0.523721 0.453991 0.720840
v -0.275336 0.453991 0.847398
v -0.000000 0.453991 0.891007
v 0.523721 0.453991 0.720840
v 0.572062 0.707107 -0.415627
v 0.415627 0.707107 -0.572062
v -0.415627 0.707107 -0.572062
v -0.572062 0.707107 -0.415627
v -0.572062 0.707107 0.415627
v -0.415627 0.707107 0.572061
v 0.415627 0.707107 0.572061
v 0.572061 0.707107 0.415627
v -0.559017 0.809017 -0.181636
v 0.559017 0.809017 0.181636
v 0.559017 0.809017 -0.181636
v 0.475529 0.809017 -0.345492
v -0.475528 0.809017 -0.345492
v -0.559017 0.809017 0.181636
v -0.475528 0.809017 0.345492
v 0.475528 0.809017 0.345492
v 0.431771 0.891007 -0.140291
v 0.095492 0.951057 -0.293893
v -0.431771 0.891007 -0.140291
v -0.453991 0.891007 0.000000
v -0.431771 0.891007 0.140291
v -0.000000 0.891007 0.453991
v 0.431771 0.891007 0.140291
v 0.453991 0.891007 0.000000
v -0.048341 0.987688 0.148778
vt 0.853228 0.645000
vt 0.918151 0.607597
vt 0.951694 0.536451
vt 0.963310 0.571114
vt 0.878718 0.475931
vt 0.709072 0.571114
vt 0.861949 0.451564
vt 0.916122 0.475931
vt 0.972777 0.645000
vt 0.904563 0.753549
vt 0.640533 0.682403
vt 0.822771 0.451564
vt 0.606990 0.536451
vt 0.779342 0.682403
vt 0.709072 0.718886
vt 0.779342 0.431961
vt 0.812885 0.431961
vt 0.735913 0.451564
vt 0.679966 0.475931
vt 0.951694 0.753549
vt 0.585907 0.645000
vt 0.745799 0.431961
vt 0.696735 0.451564
vt 0.642562 0.475931
vt 0.878718 0.814069
vt 0.916122 0.814069
vt 0.595374 0.718886
vt 0.861949 0.838435
vt 0.822771 0.838435
vt 0.735913 0.838435
vt 0.679966 0.814069
vt 0.606990 0.753549
vt 0.812885 0.858039
vt 0.779342 0.858039
vt 0.642562 0.814069
vt 0.745799 0.858039
vt 0.696735 0.838435
vt 0.337911 0.177628
vt 0.304368 0.106482
vt 0.377344 0.045962
vt 0.476720 0.177628
vt 0.546990 0.141145
vt 0.406450 0.288917
vt 0.283285 0.215031
vt 0.394113 0.021596
vt 0.433291 0.021596
vt 0.339940 0.045962
vt 0.615529 0.177628
vt 0.351499 0.323580
vt 0.520149 0.021596
vt 0.576096 0.045962
vt 0.649072 0.106482
vt 0.476720 0.252434
vt 0.443177 0.001992
vt 0.476720 0.001992
vt 0.670156 0.215031
vt 0.546990 0.288917
vt 0.304368 0.323580
vt 0.510264 0.001992
vt 0.559327 0.021596
vt 0.613500 0.045962
vt 0.377344 0.384100
vt 0.660688 0.288917
vt 0.339940 0.384100
vt 0.649072 0.323580
vt 0.576096 0.384100
vt 0.433291 0.408467
vt 0.394113 0.408467
vt 0.613500 0.384100
vt 0.520149 0.408467
vt 0.476720 0.428070
vt 0.443177 0.428070
vt 0.559327 0.408467
vt 0.510264 0.428070
vt 0.241957 0.181488
vt 0.138721 0.106482
vt 0.252420 0.132424
vt 0.272382 0.171602
vt 0.247270 0.215031
vt 0.238097 0.078252
vt 0.241957 0.248575
vt 0.275501 0.115655
vt 0.272382 0.258460
vt 0.252420 0.297638
vt 0.035485 0.181488
vt 0.039345 0.078252
vt 0.204554 0.012419
vt 0.138721 0.001992
vt 0.263943 0.042679
vt 0.275501 0.314407
vt 0.238097 0.351811
vt 0.025023 0.132424
vt 0.072888 0.012419
vt 0.035485 0.248575
vt 0.030172 0.215031
vt 0.005061 0.171602
vt 0.001942 0.115655
vt 0.204554 0.417643
vt 0.025023 0.297638
vt 0.127163 0.250604
vt 0.013500 0.042679
vt 0.263942 0.387383
vt 0.138721 0.428070
vt 0.039345 0.351811
vt 0.072889 0.417643
vt 0.005061 0.258460
vt 0.001942 0.314407
vt 0.013500 0.387383
vt 0.579926 0.744376
vt 0.556845 0.727607
vt 0.465979 0.715269
vt 0.542523 0.781779
vt 0.576807 0.688429
vt 0.546383 0.678543
vt 0.568368 0.817352
vt 0.508979 0.847612
vt 0.443147 0.858039
vt 0.329448 0.727607
vt 0.551696 0.645000
vt 0.377314 0.847612
vt 0.343771 0.781779
vt 0.306367 0.744376
vt 0.317925 0.817352
vt 0.339911 0.678543
vt 0.546383 0.611456
vt 0.309486 0.688429
vt 0.556845 0.562393
vt 0.576807 0.601571
vt 0.334598 0.645000
vt 0.579926 0.545624
vt 0.339911 0.611456
vt 0.443147 0.536451
vt 0.431588 0.609427
vt 0.542523 0.508220
vt 0.309486 0.601571
vt 0.329448 0.562393
vt 0.508979 0.442388
vt 0.568368 0.472648
vt 0.443147 0.431961
vt 0.306367 0.545624
vt 0.377314 0.442388
vt 0.343771 0.508220
vt 0.317925 0.472648
vt 0.300387 0.447279
vt 0.300387 0.506667
vt 0.265724 0.438839
vt 0.300387 0.572500
vt 0.229242 0.645476
vt 0.300387 0.638333
vt 0.154435 0.499524
vt 0.191838 0.431961
vt 0.300387 0.697721
vt 0.191838 0.713039
vt 0.083289 0.447279
vt 0.083289 0.638333
vt 0.083289 0.506667
vt 0.083289 0.572500
vt 0.083289 0.697721
vt 0.001942 0.982690
vt 0.001942 0.923301
vt 0.001942 0.857469
vt 0.073087 0.857469
vt 0.110491 0.998008
vt 0.001942 0.791636
vt 0.147894 0.857469
vt 0.001942 0.732248
vt 0.184376 0.991129
vt 0.110491 0.716930
vt 0.219039 0.791636
vt 0.219039 0.923301
vt 0.219039 0.982690
vt 0.184376 0.723808
vt 0.219039 0.857469
vt 0.219039 0.732248
vn -0.043179 -0.976208 0.212492
vn -0.001432 -0.871211 -0.490906
vn 0.188464 -0.967317 -0.169645
vn -0.139105 -0.983680 -0.114117
vn -0.242864 -0.969428 0.035032
vn 0.314576 -0.872406 -0.374098
vn -0.528826 -0.848730 0.000000
vn -0.274767 -0.875006 0.398581
vn 0.240369 -0.885269 0.398147
vn 0.250635 -0.945571 0.207553
vn 0.347544 -0.937656 -0.003777
vn 0.811710 -0.579875 -0.069798
vn 0.200284 -0.745736 -0.635425
vn -0.200284 -0.745736 -0.635425
vn -0.314576 -0.872406 -0.374098
vn -0.844115 -0.528723 -0.089006
vn -0.813460 -0.580990 0.027086
vn -0.125084 -0.795491 0.592916
vn 0.128852 -0.798070 0.588627
vn 0.844115 -0.528723 0.089007
vn 0.835820 -0.464366 -0.292863
vn -0.809431 -0.537436 -0.236609
vn -0.763414 -0.545277 0.346226
vn 0.753268 -0.593645 0.283148
vn 0.705428 -0.445856 -0.550984
vn 0.174756 -0.324244 -0.929692
vn 0.023201 -0.613946 -0.789007
vn -0.244773 -0.503309 -0.828713
vn -0.606402 -0.414463 -0.678600
vn -0.933506 -0.334182 -0.129959
vn -0.596618 -0.405675 0.692441
vn -0.275240 -0.333987 0.901496
vn 0.000000 -0.655067 0.755571
vn 0.295913 -0.409698 0.862892
vn 0.599035 -0.328841 0.730083
vn 0.905288 -0.379400 0.191072
vn 0.944933 -0.172610 -0.278042
vn -0.865969 -0.212622 -0.452648
vn -0.895462 -0.374417 0.240748
vn 0.856155 -0.142608 -0.496650
vn 0.524349 -0.231360 -0.819470
vn -0.162354 -0.034036 -0.986145
vn -0.820373 -0.078780 0.566376
vn 0.087830 -0.065751 0.993963
vn 0.835335 0.047141 0.547716
vn -0.587072 0.049265 -0.808035
vn -0.456440 -0.025686 0.889384
vn 0.477035 -0.070927 0.876018
vn 0.585304 0.031465 -0.810203
vn 0.162354 0.034036 -0.986145
vn -0.921870 0.290000 -0.257015
vn -0.053728 0.041364 0.997699
vn 0.902400 0.355605 0.243350
vn 0.820841 0.407171 -0.400540
vn -0.199113 0.319618 -0.926390
vn -0.767748 0.351253 -0.535896
vn -0.946706 0.317719 0.052927
vn -0.878864 0.327895 0.346531
vn -0.510447 0.264241 0.818303
vn 0.253705 0.341098 0.905144
vn 0.524349 0.231360 0.819470
vn 0.967000 0.254363 -0.014476
vn 0.557996 0.388322 -0.733380
vn -0.544800 0.375386 -0.749852
vn 0.244773 0.503309 -0.828714
vn -0.064265 0.609292 -0.790338
vn -0.639234 0.379163 0.669040
vn -0.295913 0.409698 0.862892
vn 0.000000 0.655067 0.755571
vn 0.619400 0.488673 0.614444
vn 0.202215 0.762063 -0.615117
vn -0.118676 0.828993 -0.546522
vn -0.756670 0.590731 -0.280154
vn -0.783737 0.568669 0.249742
vn -0.200284 0.745736 0.635425
vn 0.200284 0.745736 0.635425
vn 0.763414 0.545277 0.346226
vn 0.789621 0.586864 -0.179137
vn -0.813460 0.580990 -0.027086
vn 0.813460 0.580990 0.027086
vn 0.844116 0.528721 -0.089005
vn 0.299421 0.875862 -0.378434
vn -0.185021 0.828489 -0.528558
vn -0.844115 0.528723 0.089006
vn -0.315053 0.871825 0.375050
vn 0.314576 0.872406 0.374098
vn 0.210049 0.964423 -0.160522
vn -0.012802 0.928191 -0.371885
vn -0.171174 0.964671 -0.200273
vn -0.528826 0.848730 0.000000
vn -0.287513 0.945799 0.151002
vn 0.016246 0.810756 0.585159
vn 0.200343 0.965841 0.164356
vn 0.240605 0.970623 -0.000000
vn 0.037196 0.999281 -0.007361
s 1
g pSphere1
usemtl blinn1SG
f 2/100/1 1/76/2 3/75/3
f 4/85/4 1/76/2 5/94/5
f 1/76/2 2/100/1 5/94/5
f 3/75/3 1/76/2 6/77/6
f 4/85/4 5/94/5 7/95/7
f 5/94/5 2/100/1 8/99/8
f 9/84/9 2/100/1 10/81/10
f 10/81/10 2/100/1 11/79/11
f 2/100/1 3/75/3 11/79/11
f 20/78/12 3/75/3 6/77/6
f 6/77/6 1/76/2 12/80/13
f 12/80/13 1/76/2 13/86/14
f 13/86/14 1/76/2 14/92/15
f 1/76/2 4/85/4 14/92/15
f 14/92/15 4/85/4 15/96/16
f 4/54/4 7/55/7 15/46/16
f 15/46/16 7/55/7 16/50/17
f 7/55/7 5/59/5 16/50/17
f 16/106/17 5/94/5 8/99/8
f 8/99/8 2/100/1 17/104/18
f 17/104/18 2/100/1 18/91/19
f 2/100/1 9/84/9 18/91/19
f 9/84/9 10/81/10 19/83/20
f 10/22/10 11/16/11 19/18/20
f 19/18/20 11/16/11 20/12/12
f 11/16/11 3/17/3 20/12/12
f 20/12/12 6/7/6 21/5/21
f 6/77/6 12/80/13 21/82/21
f 13/86/14 14/92/15 22/97/22
f 14/45/15 15/46/16 22/40/22
f 15/46/16 16/50/17 22/40/22
f 16/50/17 8/60/8 23/51/23
f 8/99/8 17/104/18 23/107/23
f 18/91/19 9/84/9 24/90/24
f 9/23/9 19/18/20 24/19/24
f 19/18/20 20/12/12 24/19/24
f 21/5/21 12/8/13 25/3/25
f 26/87/26 12/80/13 27/88/27
f 12/80/13 13/86/14 27/88/27
f 27/88/27 13/86/14 28/93/28
f 13/47/14 22/40/22 29/39/29
f 22/40/22 16/50/17 30/41/30
f 16/50/17 23/51/23 30/41/30
f 23/51/23 17/61/18 31/52/31
f 32/105/32 17/104/18 33/103/33
f 17/104/18 18/91/19 33/103/33
f 33/103/33 18/91/19 34/98/34
f 18/24/19 24/19/24 35/13/35
f 24/19/24 20/12/12 36/6/36
f 20/12/12 21/5/21 36/6/36
f 21/5/21 25/3/25 37/1/37
f 12/80/13 26/87/26 25/89/25
f 28/93/28 13/86/14 29/101/29
f 29/39/29 22/40/22 38/38/38
f 22/40/22 30/41/30 38/38/38
f 30/41/30 23/51/23 39/42/39
f 23/51/23 31/52/31 39/42/39
f 17/104/18 32/105/32 31/108/31
f 34/98/34 18/91/19 35/102/35
f 35/13/35 24/19/24 36/6/36
f 36/6/36 21/5/21 37/1/37
f 37/1/37 25/3/25 40/2/40
f 40/2/40 25/3/25 41/4/41
f 25/144/25 26/145/26 41/146/41
f 26/145/26 27/147/27 42/148/42
f 27/147/27 28/149/28 42/148/42
f 28/149/28 29/152/29 42/148/42
f 39/42/39 31/52/31 43/48/43
f 32/160/32 33/161/33 44/162/44
f 33/161/33 34/164/34 44/162/44
f 34/164/34 35/166/35 44/162/44
f 35/13/35 36/6/36 45/11/45
f 42/148/42 29/152/29 46/153/46
f 29/39/29 38/38/38 46/44/46
f 43/48/43 31/52/31 47/56/47
f 31/159/31 32/160/32 47/163/47
f 44/162/44 35/166/35 48/168/48
f 35/13/35 45/11/45 48/21/48
f 40/2/40 41/4/41 49/9/49
f 41/146/41 26/145/26 49/151/49
f 49/151/49 26/145/26 50/150/50
f 26/145/26 42/148/42 50/150/50
f 38/38/38 30/41/30 51/43/51
f 47/163/47 32/160/32 52/165/52
f 32/160/32 44/162/44 52/165/52
f 45/11/45 36/6/36 53/15/53
f 37/1/37 40/2/40 54/10/54
f 40/2/40 49/9/49 54/10/54
f 50/150/50 42/148/42 55/155/55
f 42/148/42 46/153/46 55/155/55
f 46/44/46 38/38/38 56/49/56
f 38/38/38 51/43/51 56/49/56
f 51/43/51 30/41/30 57/53/57
f 30/41/30 39/42/39 57/53/57
f 57/53/57 39/42/39 58/57/58
f 39/42/39 43/48/43 58/57/58
f 43/48/43 47/56/47 59/63/59
f 47/163/47 52/165/52 59/167/59
f 52/165/52 44/162/44 60/169/60
f 44/162/44 48/168/48 60/169/60
f 60/169/60 48/168/48 61/172/61
f 48/21/48 45/11/45 61/27/61
f 53/15/53 36/6/36 62/14/62
f 36/6/36 37/1/37 62/14/62
f 54/10/54 49/9/49 63/20/63
f 49/151/49 50/150/50 63/154/63
f 55/155/55 46/153/46 64/158/64
f 46/44/46 56/49/56 64/58/64
f 62/14/62 37/1/37 54/10/54
f 63/154/63 50/150/50 65/156/65
f 65/156/65 50/150/50 66/157/66
f 50/150/50 55/155/55 66/157/66
f 58/57/58 43/48/43 67/65/67
f 43/48/43 59/63/59 67/65/67
f 59/167/59 52/165/52 67/171/67
f 67/171/67 52/165/52 68/170/68
f 68/170/68 52/165/52 69/173/69
f 52/165/52 60/169/60 69/173/69
f 60/169/60 61/172/61 70/174/70
f 61/27/61 45/11/45 70/32/70
f 45/11/45 53/15/53 70/32/70
f 54/10/54 63/20/63 72/26/71
f 63/115/63 65/116/65 72/112/71
f 55/120/55 64/123/64 73/121/72
f 64/58/64 56/49/56 73/64/72
f 56/49/56 51/43/51 74/62/73
f 51/43/51 57/53/57 74/62/73
f 57/53/57 58/57/58 75/66/74
f 58/57/58 67/65/67 75/66/74
f 67/143/67 68/141/68 76/142/75
f 60/137/60 70/138/70 77/134/76
f 70/32/70 53/15/53 78/31/77
f 53/15/53 62/14/62 78/31/77
f 62/14/62 54/10/54 71/25/78
f 54/10/54 72/26/71 71/25/78
f 72/112/71 65/116/65 66/117/66
f 66/117/66 55/120/55 73/121/72
f 73/64/72 56/49/56 74/62/73
f 74/62/73 57/53/57 79/67/79
f 57/53/57 75/66/74 79/67/79
f 67/65/67 76/69/75 75/66/74
f 68/141/68 69/139/69 76/142/75
f 76/142/75 69/139/69 77/134/76
f 69/139/69 60/137/60 77/134/76
f 77/35/76 70/32/70 78/31/77
f 78/31/77 62/14/62 80/30/80
f 62/14/62 71/25/78 80/30/80
f 81/29/81 71/25/78 82/28/82
f 71/109/78 72/112/71 82/110/82
f 73/121/72 74/122/73 83/118/83
f 83/68/83 74/62/73 79/67/79
f 79/67/79 75/66/74 84/70/84
f 84/70/84 75/66/74 85/73/85
f 75/140/74 76/142/75 85/136/85
f 77/134/76 78/130/77 86/127/86
f 86/37/86 78/31/77 80/30/80
f 80/30/80 71/25/78 81/29/81
f 81/113/81 82/110/82 87/114/87
f 82/110/82 72/112/71 87/114/87
f 87/114/87 72/112/71 88/111/88
f 72/112/71 66/117/66 88/111/88
f 88/111/88 66/117/66 83/118/83
f 66/117/66 73/121/72 83/118/83
f 83/118/83 79/126/79 89/124/89
f 89/72/89 79/67/79 90/71/90
f 79/67/79 84/70/84 90/71/90
f 90/71/90 84/70/84 91/74/91
f 84/135/84 85/136/85 91/131/91
f 85/136/85 76/142/75 92/132/92
f 76/142/75 77/134/76 92/132/92
f 77/134/76 86/127/86 92/132/92
f 92/132/92 86/127/86 93/125/93
f 86/127/86 80/128/80 93/125/93
f 93/36/93 80/30/80 94/34/94
f 80/30/80 81/29/81 94/34/94
f 94/34/94 81/29/81 87/33/87
f 88/111/88 83/118/83 89/124/89
f 89/124/89 90/129/90 91/131/91
f 91/131/91 85/136/85 95/133/95
f 85/136/85 92/132/92 95/133/95
f 93/125/93 94/119/94 92/132/92
f 92/132/92 94/119/94 87/114/87
f 87/114/87 88/111/88 89/124/89
f 89/124/89 91/131/91 95/133/95
f 92/132/92 87/114/87 95/133/95
f 87/114/87 89/124/89 95/133/95
