# This file uses centimeters as units for non-parametric coordinates.

mtllib rock2_LOW.mtl
g default
v -0.697599 0.391856 0.275745
v -0.255600 0.629907 -0.644897
v -0.946592 -0.402966 -0.052806
v 0.818562 0.446610 0.105436
v -0.830119 0.011441 -0.063875
v -0.026157 0.123473 0.887500
v -0.066369 -0.284784 -0.880269
v 0.833292 -0.262804 0.484322
v 0.168912 0.546619 -0.650583
v 0.389337 0.709763 0.273833
v 0.905420 -0.394989 -0.185363
v 0.759869 -0.484749 0.174046
v 0.946371 0.154090 0.030322
v 0.058075 0.663212 0.653704
v 0.620386 -0.372204 -0.572073
v 0.126890 -0.519794 -0.663417
v -0.460610 -0.530493 0.536223
v 0.260811 -0.537814 0.944193
v 0.800771 0.519493 -0.360302
vt 0.929662 0.684568
vt 0.836636 0.898960
vt 0.371774 0.529646
vt 0.407272 0.036392
vt 0.713864 0.558013
vt 0.647322 0.164260
vt 0.227384 0.053071
vt 0.000000 0.251617
vt 0.500670 0.000000
vt 0.321590 0.676758
vt 0.319555 0.758685
vt 0.741391 0.942675
vt 0.395927 0.271007
vt 0.000031 0.066144
vt 0.695576 0.356821
vt 0.695638 0.677489
vt 0.426298 0.477853
vt 0.561478 0.627398
vt 0.610146 0.272739
vt 0.141764 0.513552
vt 0.762496 0.520997
vt 0.671934 0.003912
vt 0.721640 0.137550
vt 0.747758 0.249256
vt 0.820792 0.282262
vt 0.323095 0.062677
vt 0.330651 0.269674
vt 0.075503 0.599948
vt 0.721592 0.099681
vt 0.944144 0.577592
vt 1.000000 0.368928
vt 0.068301 0.408852
vt 0.695576 0.633236
vt 0.871220 0.610164
vt 0.183490 0.418129
vt 0.371831 0.160502
vt 0.170343 0.000000
vt 0.864116 0.319046
vt 0.953257 0.914727
vt 0.586418 0.354851
vt 0.666332 0.438154
vt 0.252839 0.408852
vt 0.328739 0.431163
vt 0.388098 0.659674
vt 0.489351 0.319046
vt 0.721592 0.319046
vt 0.354845 0.326581
vt 0.101029 0.677297
vn 0.972579 -0.218674 0.079193
vn 0.995977 0.084816 -0.028902
vn 0.968707 -0.009325 0.248031
vn -0.741261 0.100963 -0.663580
vn -0.898644 0.236050 -0.369756
vn -0.765878 0.302652 -0.567303
vn 0.282321 0.603103 -0.746031
vn 0.049207 0.977362 -0.205774
vn 0.117298 0.979326 -0.164806
vn -0.607055 0.203486 0.768165
vn -0.751447 0.157453 0.640731
vn -0.561352 -0.128171 0.817592
vn -0.265558 0.403450 -0.875618
vn -0.741261 0.100963 -0.663580
vn -0.765878 0.302652 -0.567303
vn 0.412303 0.086056 0.906973
vn 0.515548 0.406669 0.754209
vn 0.321077 0.324085 0.889876
vn 0.612607 -0.671816 0.416384
vn 0.272091 -0.956966 0.100911
vn 0.702859 -0.685849 0.188680
vn -0.758948 0.528978 0.379710
vn -0.250010 0.949948 0.187332
vn -0.373397 0.913912 0.159184
vn 0.412303 0.086056 0.906973
vn 0.321077 0.324085 0.889876
vn -0.217697 0.193191 0.956705
vn -0.373397 0.913912 0.159184
vn -0.250010 0.949948 0.187332
vn -0.028265 0.999019 0.034094
vn -0.217697 0.193191 0.956705
vn 0.220745 0.420347 0.880102
vn -0.346253 0.432175 0.832666
vn 0.612607 -0.671816 0.416384
vn 0.191532 -0.962802 0.190600
vn 0.272091 -0.956966 0.100911
vn 0.402758 -0.328782 -0.854218
vn -0.041723 0.034819 -0.998522
vn 0.429891 0.212848 -0.877434
vn 0.378631 0.925302 0.021320
vn 0.732826 0.477455 -0.484771
vn 0.318085 0.710155 -0.628094
vn 0.761178 0.031911 -0.647758
vn 0.688591 0.008734 -0.725097
vn 0.959962 0.003102 -0.280113
vn 0.378631 0.925302 0.021320
vn 0.732897 0.647674 0.208280
vn 0.939119 0.271104 -0.211087
vn -0.340307 -0.847441 -0.407474
vn -0.066098 -0.979669 -0.189421
vn -0.303072 -0.941083 0.150036
vn 0.513324 -0.793126 -0.327795
vn 0.908419 -0.414840 0.051792
vn 0.702859 -0.685849 0.188680
vn 0.097302 -0.715840 -0.691452
vn -0.066098 -0.979669 -0.189421
vn -0.340307 -0.847441 -0.407474
vn -0.130552 -0.566458 -0.813684
vn 0.402758 -0.328782 -0.854218
vn 0.097302 -0.715840 -0.691452
vn 0.471786 0.741128 0.477647
vn 0.224716 0.966609 0.123163
vn -0.075426 0.837696 0.540903
vn 0.097302 -0.715840 -0.691452
vn -0.340307 -0.847441 -0.407474
vn -0.402680 -0.506989 -0.762109
vn 0.794880 0.581275 0.174026
vn 0.515548 0.406669 0.754209
vn 0.968707 -0.009325 0.248031
vn 0.412303 0.086056 0.906973
vn 0.729396 -0.075600 0.679902
vn 0.515548 0.406669 0.754209
vn 0.612607 -0.671816 0.416384
vn 0.702859 -0.685849 0.188680
vn 0.847786 -0.427500 0.313852
vn -0.567136 -0.043397 0.822480
vn -0.523334 -0.562679 0.639933
vn -0.561352 -0.128171 0.817592
vn -0.740156 -0.362859 0.566129
vn -0.523334 -0.562679 0.639933
vn -0.567136 -0.043397 0.822480
vn -0.898644 0.236050 -0.369756
vn -0.812135 0.582827 0.027381
vn -0.750073 0.622654 -0.222920
vn 0.972579 -0.218674 0.079193
vn 0.959962 0.003102 -0.280113
vn 0.995977 0.084816 -0.028902
vn -0.280379 -0.767121 0.576986
vn 0.236489 -0.599314 0.764784
vn -0.141499 -0.017128 0.989790
vn 0.939119 0.271104 -0.211087
vn 0.995977 0.084816 -0.028902
vn 0.959962 0.003102 -0.280113
vn 0.939119 0.271104 -0.211087
vn 0.732897 0.647674 0.208280
vn 0.995977 0.084816 -0.028902
vn -0.265558 0.403450 -0.875618
vn 0.282321 0.603103 -0.746031
vn 0.429891 0.212848 -0.877434
vn -0.265558 0.403450 -0.875618
vn -0.250887 0.678751 -0.690183
vn 0.282321 0.603103 -0.746031
s off
g asteroid:Mesh
usemtl initialShadingGroup
f 12/5/1 13/34/2 8/21/3
f 3/12/4 5/2/5 2/1/6
f 9/9/7 2/4/8 10/6/9
f 1/41/10 5/40/11 6/18/12
f 7/16/13 3/12/14 2/1/15
f 18/15/16 4/30/17 14/31/18
f 18/14/19 15/36/20 12/7/21
f 1/13/22 14/19/23 2/4/24
f 18/15/25 14/31/26 6/38/27
f 2/4/28 14/19/29 10/6/30
f 6/18/31 14/33/32 1/41/33
f 18/14/34 17/8/35 15/36/36
f 15/20/37 7/48/38 19/3/39
f 10/6/40 19/22/41 9/9/42
f 15/20/43 19/3/44 11/35/45
f 10/23/46 4/24/47 19/25/48
f 3/32/49 15/36/50 17/8/51
f 15/36/52 11/26/53 12/7/54
f 16/27/55 15/36/56 3/32/57
f 7/48/58 15/20/59 16/28/60
f 4/29/61 10/6/62 14/19/63
f 16/27/64 3/32/65 7/47/66
f 13/34/67 4/30/68 8/21/69
f 18/15/70 8/21/71 4/30/72
f 18/14/73 12/7/74 8/37/75
f 5/40/76 17/17/77 6/18/78
f 3/45/79 17/17/80 5/40/81
f 5/2/82 1/39/83 2/1/84
f 12/42/85 11/35/86 13/43/87
f 17/17/88 18/44/89 6/18/90
f 19/3/91 13/43/92 11/35/93
f 19/25/94 4/24/95 13/46/96
f 7/48/97 9/10/98 19/3/99
f 7/48/100 2/11/101 9/10/102
