# This file uses centimeters as units for non-parametric coordinates.

mtllib rock2_MEDIUM.mtl
g default
v -0.088047 0.755269 -0.463446
v -0.896701 -0.383692 0.331722
v -0.580770 0.513698 -0.247236
v -0.697599 0.391856 0.275745
v -0.354937 0.694915 -0.442208
v -0.733623 -0.012390 0.391407
v -0.710239 -0.457875 -0.433868
v 0.818562 0.446610 0.105436
v 0.441588 0.618855 0.521183
v 0.620386 -0.372204 -0.572073
v -0.066369 -0.284784 -0.880269
v -0.296795 0.513202 0.537048
v -0.908196 -0.196093 0.244411
v -0.830119 0.011441 -0.063875
v 0.081375 -0.405284 0.986519
v -0.045019 -0.002712 -0.986519
v 0.833292 -0.262804 0.484322
v -0.460610 -0.530493 0.536223
v 0.168912 0.546619 -0.650583
v 0.389337 0.709763 0.273833
v 0.638708 0.422966 0.505616
v -0.946592 -0.402966 -0.052806
v 0.905420 -0.394989 -0.185363
v 0.166484 0.478217 0.764903
v 0.919377 -0.175340 0.036215
v -0.255600 0.629907 -0.644897
v 0.899542 0.335283 0.297029
v -0.388853 0.349062 0.639005
v 0.058075 0.663212 0.653704
v 0.909220 0.001346 -0.189112
v 0.721743 -0.594983 -0.301058
v 0.126890 -0.519794 -0.663417
v 0.759869 -0.484749 0.174046
v 0.946371 0.154090 0.030322
v 0.036545 -0.652142 0.804013
v -0.026157 0.123473 0.887500
v 0.260811 -0.537814 0.944193
v -0.772960 -0.600546 0.151535
v 0.800771 0.519493 -0.360302
vt 0.962265 0.728057
vt 0.929662 0.684568
vt 0.836636 0.898960
vt 0.371774 0.529646
vt 0.371831 0.150081
vt 0.406744 0.084655
vt 0.937341 0.802735
vt 0.739755 0.637792
vt 0.790163 0.605118
vt 0.713864 0.558013
vt 0.466004 0.054740
vt 0.647322 0.164260
vt 0.407272 0.036392
vt 0.227384 0.053071
vt 0.871220 0.610164
vt 0.483144 0.379133
vt 0.566293 0.430810
vt 0.531410 0.373100
vt 0.002406 0.127618
vt 0.500670 0.000000
vt 0.321590 0.676758
vt 0.319555 0.758685
vt 0.371831 0.718807
vt 0.934425 0.485845
vt 0.950867 0.369066
vt 0.000000 0.251617
vt 0.741391 0.942675
vt 0.777879 1.000000
vt 0.814392 0.974820
vt 0.561478 0.627398
vt 0.695576 0.850029
vt 0.141764 0.513552
vt 0.395927 0.271007
vt 0.000031 0.066144
vt 0.695576 0.356821
vt 0.752460 0.638720
vt 0.371831 0.596760
vt 0.426111 0.638510
vt 0.501419 0.319046
vt 0.515240 0.285039
vt 0.610146 0.272739
vt 0.118925 0.447635
vt 0.864116 0.319046
vt 0.643782 0.659783
vt 0.635861 0.539129
vt 0.762496 0.520997
vt 0.695638 0.677489
vt 0.671934 0.003912
vt 0.273634 0.449727
vt 0.721640 0.137550
vt 0.747758 0.249256
vt 0.820792 0.282262
vt 0.323095 0.062677
vt 0.005872 0.513634
vt 0.006022 0.612097
vt 0.041462 0.548754
vt 0.429869 0.368933
vt 0.426298 0.477853
vt 0.044569 0.356401
vt 0.330651 0.269674
vt 0.101029 0.677297
vt 0.075503 0.599948
vt 0.682265 0.212902
vt 0.721592 0.099681
vt 0.985494 0.451521
vt 0.944144 0.577592
vt 1.000000 0.368928
vt 0.371831 0.160502
vt 0.179156 0.406072
vt 0.695576 0.633236
vt 0.912297 0.560646
vt 0.068301 0.408852
vt 0.837648 0.638720
vt 0.183490 0.418129
vt 0.674900 0.548703
vt 0.324779 0.115257
vt 0.170343 0.000000
vt 0.730293 0.321189
vt 0.953257 0.914727
vt 0.006033 0.668066
vt 0.055275 0.612495
vt 0.005872 0.612097
vt 0.586418 0.354851
vt 0.666332 0.438154
vt 0.252839 0.408852
vt 0.328739 0.431163
vt 0.388098 0.659674
vt 0.000000 0.475701
vt 0.041403 0.513634
vt 0.041462 0.408852
vt 0.489351 0.319046
vt 0.721592 0.319046
vt 0.354845 0.326581
vt 0.157426 0.707879
vn -0.494993 0.842217 -0.213665
vn -0.765878 0.302652 -0.567303
vn -0.750073 0.622654 -0.222920
vn 0.908419 -0.414840 0.051792
vn 0.972579 -0.218674 0.079193
vn 0.702859 -0.685849 0.188680
vn 0.049207 0.977362 -0.205774
vn -0.373397 0.913912 0.159184
vn -0.028265 0.999019 0.034094
vn 0.049207 0.977362 -0.205774
vn -0.250887 0.678751 -0.690183
vn -0.494993 0.842217 -0.213665
vn 0.972579 -0.218674 0.079193
vn 0.995977 0.084816 -0.028902
vn 0.968707 -0.009325 0.248031
vn -0.740156 -0.362859 0.566129
vn -0.751447 0.157453 0.640731
vn -0.923459 0.327195 0.200416
vn -0.741261 0.100963 -0.663580
vn -0.898644 0.236050 -0.369756
vn -0.765878 0.302652 -0.567303
vn 0.282321 0.603103 -0.746031
vn 0.049207 0.977362 -0.205774
vn 0.117298 0.979326 -0.164806
vn 0.282321 0.603103 -0.746031
vn -0.250887 0.678751 -0.690183
vn 0.049207 0.977362 -0.205774
vn -0.523334 -0.562679 0.639933
vn -0.115626 -0.981334 0.153669
vn -0.280379 -0.767121 0.576986
vn -0.932037 -0.278592 -0.231720
vn -0.740156 -0.362859 0.566129
vn -0.923459 0.327195 0.200416
vn -0.607055 0.203486 0.768165
vn -0.561352 -0.128171 0.817592
vn -0.217697 0.193191 0.956705
vn -0.750073 0.622654 -0.222920
vn -0.812135 0.582827 0.027381
vn -0.373397 0.913912 0.159184
vn -0.607055 0.203486 0.768165
vn -0.751447 0.157453 0.640731
vn -0.561352 -0.128171 0.817592
vn -0.265558 0.403450 -0.875618
vn -0.741261 0.100963 -0.663580
vn -0.765878 0.302652 -0.567303
vn 0.847786 -0.427500 0.313852
vn 0.702859 -0.685849 0.188680
vn 0.972579 -0.218674 0.079193
vn -0.115626 -0.981334 0.153669
vn 0.272091 -0.956966 0.100911
vn 0.191532 -0.962802 0.190600
vn -0.758948 0.528978 0.379710
vn -0.607055 0.203486 0.768165
vn -0.481138 0.748904 0.455685
vn 0.412303 0.086056 0.906973
vn 0.515548 0.406669 0.754209
vn 0.321077 0.324085 0.889876
vn 0.612607 -0.671816 0.416384
vn 0.272091 -0.956966 0.100911
vn 0.702859 -0.685849 0.188680
vn -0.758948 0.528978 0.379710
vn -0.250010 0.949948 0.187332
vn -0.373397 0.913912 0.159184
vn -0.758948 0.528978 0.379710
vn -0.481138 0.748904 0.455685
vn -0.250010 0.949948 0.187332
vn 0.412303 0.086056 0.906973
vn 0.321077 0.324085 0.889876
vn -0.217697 0.193191 0.956705
vn -0.373397 0.913912 0.159184
vn -0.250010 0.949948 0.187332
vn -0.028265 0.999019 0.034094
vn -0.217697 0.193191 0.956705
vn 0.220745 0.420347 0.880102
vn -0.346253 0.432175 0.832666
vn 0.612607 -0.671816 0.416384
vn 0.191532 -0.962802 0.190600
vn 0.272091 -0.956966 0.100911
vn 0.402758 -0.328782 -0.854218
vn -0.041723 0.034819 -0.998522
vn 0.429891 0.212848 -0.877434
vn 0.378631 0.925302 0.021320
vn 0.732826 0.477455 -0.484771
vn 0.318085 0.710155 -0.628094
vn 0.761178 0.031911 -0.647758
vn 0.688591 0.008734 -0.725097
vn 0.959962 0.003102 -0.280113
vn 0.378631 0.925302 0.021320
vn 0.732897 0.647674 0.208280
vn 0.939119 0.271104 -0.211087
vn -0.340307 -0.847441 -0.407474
vn -0.066098 -0.979669 -0.189421
vn -0.303072 -0.941083 0.150036
vn 0.513324 -0.793126 -0.327795
vn 0.908419 -0.414840 0.051792
vn 0.702859 -0.685849 0.188680
vn 0.732897 0.647674 0.208280
vn 0.527210 0.610037 0.591527
vn 0.794880 0.581275 0.174026
vn -0.522543 -0.846257 0.103916
vn -0.523334 -0.562679 0.639933
vn -0.740156 -0.362859 0.566129
vn 0.097302 -0.715840 -0.691452
vn -0.066098 -0.979669 -0.189421
vn -0.340307 -0.847441 -0.407474
vn -0.130552 -0.566458 -0.813684
vn 0.402758 -0.328782 -0.854218
vn 0.097302 -0.715840 -0.691452
vn -0.932037 -0.278592 -0.231720
vn -0.923459 0.327195 0.200416
vn -0.953793 0.260192 -0.150263
vn 0.471786 0.741128 0.477647
vn 0.732897 0.647674 0.208280
vn 0.224716 0.966609 0.123163
vn 0.471786 0.741128 0.477647
vn 0.527210 0.610037 0.591527
vn 0.732897 0.647674 0.208280
vn 0.471786 0.741128 0.477647
vn 0.224716 0.966609 0.123163
vn -0.075426 0.837696 0.540903
vn 0.220745 0.420347 0.880102
vn 0.471786 0.741128 0.477647
vn -0.075426 0.837696 0.540903
vn 0.220745 0.420347 0.880102
vn 0.527210 0.610037 0.591527
vn 0.471786 0.741128 0.477647
vn 0.513324 -0.793126 -0.327795
vn 0.097302 -0.715840 -0.691452
vn 0.456431 -0.414715 -0.787199
vn 0.097302 -0.715840 -0.691452
vn -0.340307 -0.847441 -0.407474
vn -0.402680 -0.506989 -0.762109
vn 0.220745 0.420347 0.880102
vn -0.075426 0.837696 0.540903
vn -0.346253 0.432175 0.832666
vn 0.794880 0.581275 0.174026
vn 0.515548 0.406669 0.754209
vn 0.968707 -0.009325 0.248031
vn -0.523334 -0.562679 0.639933
vn -0.280379 -0.767121 0.576986
vn -0.561352 -0.128171 0.817592
vn -0.522543 -0.846257 0.103916
vn -0.932037 -0.278592 -0.231720
vn -0.620038 -0.501334 -0.603504
vn 0.412303 0.086056 0.906973
vn 0.729396 -0.075600 0.679902
vn 0.515548 0.406669 0.754209
vn 0.908419 -0.414840 0.051792
vn 0.959962 0.003102 -0.280113
vn 0.972579 -0.218674 0.079193
vn 0.908419 -0.414840 0.051792
vn 0.837850 -0.292085 -0.461187
vn 0.959962 0.003102 -0.280113
vn -0.075426 0.837696 0.540903
vn -0.481138 0.748904 0.455685
vn -0.346253 0.432175 0.832666
vn 0.612607 -0.671816 0.416384
vn 0.702859 -0.685849 0.188680
vn 0.847786 -0.427500 0.313852
vn -0.567136 -0.043397 0.822480
vn -0.523334 -0.562679 0.639933
vn -0.561352 -0.128171 0.817592
vn 0.456431 -0.414715 -0.787199
vn 0.688591 0.008734 -0.725097
vn 0.761178 0.031911 -0.647758
vn -0.740156 -0.362859 0.566129
vn -0.523334 -0.562679 0.639933
vn -0.567136 -0.043397 0.822480
vn 0.412303 0.086056 0.906973
vn -0.217697 0.193191 0.956705
vn -0.141499 -0.017128 0.989790
vn -0.898644 0.236050 -0.369756
vn -0.750073 0.622654 -0.222920
vn -0.765878 0.302652 -0.567303
vn -0.898644 0.236050 -0.369756
vn -0.812135 0.582827 0.027381
vn -0.750073 0.622654 -0.222920
vn 0.995977 0.084816 -0.028902
vn 0.732897 0.647674 0.208280
vn 0.794880 0.581275 0.174026
vn -0.953793 0.260192 -0.150263
vn -0.751447 0.157453 0.640731
vn -0.758948 0.528978 0.379710
vn 0.972579 -0.218674 0.079193
vn 0.959962 0.003102 -0.280113
vn 0.995977 0.084816 -0.028902
vn -0.280379 -0.767121 0.576986
vn 0.236489 -0.599314 0.764784
vn -0.141499 -0.017128 0.989790
vn -0.932037 -0.278592 -0.231720
vn -0.953793 0.260192 -0.150263
vn -0.822013 0.168977 -0.543821
vn 0.939119 0.271104 -0.211087
vn 0.995977 0.084816 -0.028902
vn 0.959962 0.003102 -0.280113
vn -0.923459 0.327195 0.200416
vn -0.751447 0.157453 0.640731
vn -0.953793 0.260192 -0.150263
vn -0.522543 -0.846257 0.103916
vn -0.740156 -0.362859 0.566129
vn -0.932037 -0.278592 -0.231720
vn -0.633429 -0.096971 -0.767701
vn -0.402680 -0.506989 -0.762109
vn -0.741261 0.100963 -0.663580
vn 0.939119 0.271104 -0.211087
vn 0.732897 0.647674 0.208280
vn 0.995977 0.084816 -0.028902
vn -0.758948 0.528978 0.379710
vn -0.751447 0.157453 0.640731
vn -0.607055 0.203486 0.768165
vn 0.995977 0.084816 -0.028902
vn 0.794880 0.581275 0.174026
vn 0.968707 -0.009325 0.248031
vn -0.265558 0.403450 -0.875618
vn 0.282321 0.603103 -0.746031
vn 0.429891 0.212848 -0.877434
vn -0.265558 0.403450 -0.875618
vn -0.250887 0.678751 -0.690183
vn 0.282321 0.603103 -0.746031
vn -0.130552 -0.566458 -0.813684
vn -0.041723 0.034819 -0.998522
vn 0.402758 -0.328782 -0.854218
s off
g asteroid:Mesh
usemtl initialShadingGroup
f 5/1/1 26/2/2 3/7/3
f 23/8/4 25/9/5 33/10/6
f 1/11/7 5/6/8 20/12/9
f 1/11/10 26/13/11 5/6/12
f 25/9/13 34/15/14 17/46/15
f 2/16/16 6/17/17 13/18/18
f 7/31/19 14/3/20 26/2/21
f 19/20/22 1/11/23 20/12/24
f 19/21/25 26/22/26 1/23/27
f 18/26/28 38/59/29 35/19/30
f 22/27/31 2/28/32 13/29/33
f 28/45/34 15/38/35 36/30/36
f 3/5/37 4/33/38 5/6/39
f 28/45/40 6/17/41 15/38/42
f 16/36/43 7/31/44 26/2/45
f 17/46/46 33/10/47 25/9/48
f 38/59/49 31/76/50 35/19/51
f 4/33/52 28/39/53 12/40/54
f 37/35/55 21/24/56 24/25/57
f 37/34/58 31/76/59 33/14/60
f 4/33/61 29/41/62 5/6/63
f 4/33/64 12/40/65 29/41/66
f 37/35/67 24/25/68 36/43/69
f 5/6/70 29/41/71 20/12/72
f 36/30/73 24/44/74 28/45/75
f 37/34/76 35/19/77 31/76/78
f 10/32/79 16/94/80 39/4/81
f 20/12/82 39/48/83 19/20/84
f 31/42/85 39/4/86 30/49/87
f 20/50/88 8/51/89 39/52/90
f 7/69/91 31/76/92 38/59/93
f 31/76/94 23/53/95 33/14/96
f 8/54/97 21/55/98 27/56/99
f 38/57/100 18/58/101 2/16/102
f 32/60/103 31/76/104 7/69/105
f 11/61/106 10/32/107 32/62/108
f 22/27/109 13/29/110 14/3/111
f 9/63/112 8/64/113 20/12/114
f 9/65/115 21/24/116 8/66/117
f 9/63/118 20/12/119 29/41/120
f 24/25/121 9/65/122 29/67/123
f 24/25/124 21/24/125 9/65/126
f 31/76/127 32/60/128 10/68/129
f 32/60/130 7/69/131 11/93/132
f 24/44/133 29/70/134 28/45/135
f 27/71/136 21/24/137 17/46/138
f 18/58/139 35/37/140 15/38/141
f 38/59/142 22/72/143 7/69/144
f 37/35/145 17/46/146 21/24/147
f 23/8/148 30/73/149 25/9/150
f 23/74/151 31/42/152 30/49/153
f 29/70/154 12/75/155 28/45/156
f 37/34/157 33/14/158 17/77/159
f 6/17/160 18/58/161 15/38/162
f 10/32/163 39/4/164 31/42/165
f 2/16/166 18/58/167 6/17/168
f 37/35/169 36/43/170 15/78/171
f 14/3/172 3/7/173 26/2/174
f 14/3/175 4/79/176 3/7/177
f 34/80/178 8/81/179 27/82/180
f 14/83/181 6/17/182 4/84/183
f 25/85/184 30/49/185 34/86/186
f 35/37/187 37/87/188 15/38/189
f 22/27/190 14/3/191 7/31/192
f 39/4/193 34/86/194 30/49/195
f 13/88/196 6/89/197 14/90/198
f 38/57/199 2/16/200 22/91/201
f 16/36/202 11/47/203 7/31/204
f 39/52/205 8/51/206 34/92/207
f 4/84/208 6/17/209 28/45/210
f 34/15/211 27/71/212 17/46/213
f 16/94/214 19/21/215 39/4/216
f 16/94/217 26/22/218 19/21/219
f 11/61/220 16/94/221 10/32/222
