# This file uses centimeters as units for non-parametric coordinates.

mtllib rock3_LOW.mtl
g default
v -0.910318 0.863156 -0.030970
v -0.574734 0.706505 -0.279129
v -0.075784 0.239352 -0.410084
v -0.605365 0.345844 -0.655863
v -1.068083 0.403599 -0.429981
v -1.511856 0.771894 -0.182246
v -1.755089 0.785441 -0.035113
v -1.515110 0.398710 -0.307859
v -1.186270 0.244143 -0.718311
v -1.862974 0.719582 -0.180504
v -1.326320 0.863948 -0.096202
v -1.060246 0.967661 0.063711
v -1.360141 0.997962 0.566490
v -2.022446 0.647221 -0.106652
v -1.969059 0.587928 0.326006
v -0.951675 1.082408 0.325460
v -0.910068 0.966776 0.780904
v -1.546796 0.893927 0.783912
v -0.930647 0.437559 1.080773
v -0.775991 0.822884 0.908241
v -0.777800 1.032075 0.542022
v -0.624563 0.952140 0.098917
v -0.122725 0.275601 0.065503
v 0.006730 0.074966 -0.047919
v -0.136509 -0.377318 0.224496
v -0.117273 -0.471160 -0.202066
v 0.015038 -0.455834 -0.513195
v -0.735100 -0.437509 -1.080773
v -0.447629 -0.620843 -1.005129
v -0.798709 -0.890174 -0.901633
v -0.969513 -0.320076 -0.972113
v -1.607821 0.229859 -0.677327
v -1.491879 -0.293583 -0.630090
v -1.821575 0.079732 -0.409322
v -1.183724 -0.919513 -0.849944
v -1.424542 -0.575800 -0.441347
v -1.619208 -0.342552 -0.399693
v -1.828103 0.110181 0.306329
v -1.401714 -0.631518 -0.039760
v -1.656422 -0.116497 0.424512
v -1.108859 -0.413494 0.266794
v -0.475143 0.521676 0.833249
v -0.847183 -0.318712 0.674082
v -0.647734 -0.368613 0.614777
v -0.649611 -0.600387 0.356320
v -0.005414 -0.179085 -0.734938
v -0.207663 -0.189375 -0.968466
v -0.142685 0.007023 -0.807388
v -0.885409 -0.133149 -1.040552
v -1.711169 -0.073619 -0.320296
v -1.950835 0.293392 -0.319190
v -2.071450 0.471969 -0.119695
v -2.001639 0.450725 -0.342429
v -1.119962 0.091114 0.897697
v -1.220163 0.352545 0.877076
v -0.220244 0.301339 0.476684
v -0.867274 -0.920488 -0.129260
v -0.936026 -1.082408 -0.340087
v -0.478023 -0.932815 -0.650199
v -1.140783 -0.976629 -0.389065
v -1.305550 -0.830894 -0.503054
v -1.061521 -0.897439 -0.123203
v -0.701914 -0.953402 -0.245300
vt 0.816300 0.965500
vt 0.637000 0.854100
vt 0.637000 0.728200
vt 0.583800 0.516500
vt 0.692000 0.646100
vt 0.769300 0.719800
vt 0.906000 0.898200
vt 0.906000 0.830900
vt 0.963100 0.790200
vt 0.863400 0.719800
vt 0.816300 0.584200
vt 0.948600 0.719800
vt 0.009300 0.830900
vt 0.009300 0.898200
vt 0.278300 0.965500
vt 0.066400 0.790200
vt 0.245700 0.790200
vt 0.051900 0.719800
vt 0.977100 0.655100
vt 0.080400 0.655100
vt 0.153900 0.646100
vt 0.368000 0.898200
vt 0.368000 0.763500
vt 0.231200 0.719800
vt 0.313700 0.581500
vt 0.368000 0.696200
vt 0.457600 0.965500
vt 0.425100 0.790200
vt 0.547300 0.763500
vt 0.510800 0.516500
vt 0.529600 0.457400
vt 0.457600 0.279600
vt 0.547300 0.247600
vt 0.602300 0.329800
vt 0.762100 0.394400
vt 0.708100 0.320700
vt 0.773700 0.256000
vt 0.797100 0.402500
vt 0.886800 0.573400
vt 0.906000 0.391600
vt 0.959200 0.459300
vt 0.976400 0.402500
vt 0.858900 0.256000
vt 0.953100 0.256000
vt 0.961000 0.329800
vt 0.064300 0.329800
vt 0.170900 0.457400
vt 0.141600 0.256000
vt 0.188600 0.391600
vt 0.235700 0.256000
vt 0.387200 0.573400
vt 0.313000 0.329800
vt 0.349400 0.320700
vt 0.335400 0.185600
vt 0.637000 0.458300
vt 0.673500 0.459300
vt 0.654700 0.518400
vt 0.779800 0.459300
vt 0.079700 0.402500
vt 0.062500 0.459300
vt 0.081200 0.518400
vt 0.977900 0.518400
vt 0.099000 0.584200
vt 0.063500 0.581500
vt 0.960300 0.581500
vt 0.278300 0.458300
vt 0.260600 0.518400
vt 0.439900 0.518400
vt 0.726700 0.010300
vt 0.816300 0.077600
vt 0.694100 0.185600
vt 0.906000 0.010300
vt 0.995700 0.077600
vt 0.009300 0.121700
vt 0.906000 0.121700
vt 0.041800 0.185600
vt 0.938600 0.185600
vt 0.056300 0.256000
vt 0.099000 0.077600
vt 0.368000 0.010300
vt 0.547300 0.010300
vt 0.637000 0.077600
vn 0.083001 0.881513 -0.464807
vn -0.056801 0.909317 -0.412208
vn -0.192797 0.808588 -0.555891
vn 0.466688 0.842778 -0.268193
vn 0.524409 0.779013 -0.343706
vn 0.089197 0.803870 -0.588078
vn 0.089197 0.803870 -0.588078
vn 0.346007 0.815517 -0.463909
vn -0.264703 0.710507 -0.652006
vn -0.143301 0.702105 -0.697505
vn -0.184306 0.681820 -0.707921
vn -0.261110 0.645625 -0.717628
vn 0.762862 0.640069 -0.091395
vn 0.587106 0.741008 -0.325904
vn 0.524409 0.779013 -0.343706
vn 0.178501 0.639705 -0.747606
vn -0.095098 0.698784 -0.708984
vn 0.119893 0.681260 -0.722157
vn 0.178501 0.639705 -0.747606
vn 0.119893 0.681260 -0.722157
vn -0.082504 0.844837 -0.528623
vn -0.082504 0.844837 -0.528623
vn 0.119893 0.681260 -0.722157
vn -0.237704 0.702311 -0.671011
vn 0.045700 0.604497 -0.795296
vn -0.238096 0.626590 -0.742088
vn -0.182604 0.407810 -0.894621
vn -0.182604 0.407810 -0.894621
vn 0.061299 0.626892 -0.776691
vn -0.088301 0.535807 -0.839711
vn -0.088301 0.535807 -0.839711
vn 0.061299 0.626892 -0.776691
vn 0.166496 0.694983 -0.699483
vn -0.007100 0.695139 -0.718840
vn -0.111601 0.854212 -0.507807
vn -0.238096 0.626590 -0.742088
vn -0.238096 0.626590 -0.742088
vn -0.111601 0.854212 -0.507807
vn -0.189805 0.831424 -0.522215
vn -0.237704 0.702311 -0.671011
vn -0.119795 0.954157 -0.274288
vn -0.300811 0.936233 -0.181606
vn -0.300811 0.936233 -0.181606
vn -0.344782 0.937151 -0.053597
vn -0.304191 0.935471 -0.179894
vn -0.304191 0.935471 -0.179894
vn -0.344782 0.937151 -0.053597
vn -0.472504 0.878407 -0.071701
vn -0.119795 0.954157 -0.274288
vn -0.229293 0.761078 -0.606782
vn -0.466217 0.883432 0.046802
vn -0.344782 0.937151 -0.053597
vn -0.466217 0.883432 0.046802
vn -0.603282 0.781376 0.159695
vn -0.344782 0.937151 -0.053597
vn -0.603282 0.781376 0.159695
vn -0.472504 0.878407 -0.071701
vn -0.472504 0.878407 -0.071701
vn -0.603282 0.781376 0.159695
vn -0.772554 0.536068 0.340280
vn -0.246510 0.968141 0.044002
vn -0.190002 0.981109 0.036400
vn -0.061699 0.968288 0.242097
vn -0.246510 0.968141 0.044002
vn -0.061699 0.968288 0.242097
vn -0.092501 0.969115 0.228604
vn -0.190002 0.981109 0.036400
vn -0.539510 0.669712 0.510309
vn -0.072300 0.796801 0.599901
vn 0.048300 0.659900 0.749800
vn -0.145507 0.218411 0.964948
vn 0.157104 0.308608 0.938125
vn 0.048300 0.659900 0.749800
vn 0.157104 0.308608 0.938125
vn 0.476269 0.566662 0.672356
vn -0.018800 0.993024 -0.116403
vn 0.231099 0.966098 -0.115100
vn 0.083001 0.881513 -0.464807
vn -0.092501 0.969115 0.228604
vn 0.130295 0.875467 0.465382
vn 0.443701 0.866502 0.228700
vn -0.092501 0.969115 0.228604
vn 0.443701 0.866502 0.228700
vn 0.231099 0.966098 -0.115100
vn 0.130295 0.875467 0.465382
vn 0.476269 0.566662 0.672356
vn 0.688404 0.662804 0.294602
vn 0.476269 0.566662 0.672356
vn 0.723993 0.611094 0.319997
vn 0.688404 0.662804 0.294602
vn 0.688404 0.662804 0.294602
vn 0.742278 0.653680 0.147396
vn 0.828431 0.503319 0.245709
vn 0.868151 0.486728 0.097006
vn 0.826403 0.561802 0.037900
vn 0.657312 0.718013 -0.228904
vn 0.856416 0.489109 0.165303
vn 0.905314 0.131402 0.403906
vn 0.922208 0.244602 0.299503
vn 0.776220 0.627416 0.061902
vn 0.922208 0.244602 0.299503
vn 0.927809 0.370904 -0.040000
vn 0.922208 0.244602 0.299503
vn 0.975778 -0.144897 0.163896
vn 0.927809 0.370904 -0.040000
vn 0.869183 0.352793 -0.346493
vn 0.993486 0.029400 -0.110098
vn 0.931524 -0.181405 -0.315208
vn 0.850957 0.137293 0.506974
vn 0.959433 -0.115904 0.257009
vn 0.941095 0.036200 0.336198
vn 0.941095 0.036200 0.336198
vn 0.959433 -0.115904 0.257009
vn 0.924284 -0.374893 0.071799
vn 0.941095 0.036200 0.336198
vn 0.924284 -0.374893 0.071799
vn 0.975778 -0.144897 0.163896
vn -0.270906 0.529611 -0.803817
vn -0.064903 0.577029 -0.814141
vn -0.053898 0.650175 -0.757871
vn -0.088098 0.510288 -0.855479
vn 0.129800 0.353200 -0.926500
vn 0.233010 0.649329 -0.723932
vn 0.462083 0.130595 -0.877168
vn 0.730609 -0.329904 -0.597807
vn 0.478067 -0.186287 -0.858341
vn 0.019801 0.313314 -0.949443
vn 0.478067 -0.186287 -0.858341
vn 0.168795 -0.052198 -0.984268
vn -0.094303 0.298210 -0.949830
vn -0.131298 -0.066899 -0.989083
vn -0.361698 0.001600 -0.932294
vn 0.168795 -0.052198 -0.984268
vn 0.409993 -0.420092 -0.809585
vn 0.000400 -0.423296 -0.905991
vn -0.131298 -0.066899 -0.989083
vn -0.099499 -0.242297 -0.965087
vn -0.361698 0.001600 -0.932294
vn -0.553506 -0.066201 -0.830210
vn -0.566508 -0.251903 -0.784611
vn -0.724994 -0.440596 -0.529395
vn -0.838143 -0.534427 -0.109106
vn -0.837191 -0.434995 -0.331497
vn -0.880602 -0.421301 -0.216900
vn -0.511890 0.109198 -0.852083
vn -0.103097 -0.002400 -0.994668
vn -0.608785 -0.158796 -0.777281
vn -0.837191 -0.434995 -0.331497
vn -0.868523 -0.419611 -0.263807
vn -0.834363 -0.440780 -0.330985
vn -0.837191 -0.434995 -0.331497
vn -0.834363 -0.440780 -0.330985
vn -0.880602 -0.421301 -0.216900
vn -0.672607 -0.465305 0.575406
vn -0.750702 -0.033300 0.659801
vn -0.584308 -0.420306 0.694210
vn -0.728517 -0.048401 0.683316
vn -0.468805 -0.477505 0.743108
vn -0.574507 -0.105201 0.811710
vn -0.574507 -0.105201 0.811710
vn -0.468805 -0.477505 0.743108
vn -0.395909 -0.637014 0.661415
vn -0.905770 -0.423486 -0.015499
vn -0.776838 -0.591529 0.215910
vn -0.804614 -0.558310 0.202204
vn -0.804614 -0.558310 0.202204
vn -0.776838 -0.591529 0.215910
vn -0.492890 -0.700286 0.516390
vn -0.468805 -0.477505 0.743108
vn -0.273799 -0.727597 0.628997
vn -0.395909 -0.637014 0.661415
vn 0.482886 0.351190 0.802176
vn 0.409507 -0.035501 0.911616
vn 0.725879 0.345790 0.594583
vn 0.409507 -0.035501 0.911616
vn 0.161307 -0.455620 0.875437
vn 0.650402 -0.247601 0.718102
vn 0.336504 -0.526406 0.780809
vn 0.601994 -0.447395 0.661393
vn 0.730892 -0.361496 0.578894
vn 0.730892 -0.361496 0.578894
vn 0.687533 -0.344317 0.639331
vn 0.783063 -0.289086 0.550674
vn 0.687533 -0.344317 0.639331
vn 0.483696 -0.458396 0.745594
vn 0.423119 -0.346415 0.837237
vn 0.462083 0.130595 -0.877168
vn 0.616493 0.564493 -0.548894
vn 0.890725 0.149904 -0.429112
vn 0.759505 0.541004 -0.361202
vn 0.604981 0.669579 -0.430886
vn 0.469570 0.722553 -0.507367
vn 0.316003 0.704106 -0.635906
vn -0.064502 0.657225 -0.750929
vn 0.388591 0.717584 -0.577987
vn 0.316003 0.704106 -0.635906
vn 0.388591 0.717584 -0.577987
vn 0.604981 0.669579 -0.430886
vn 0.604981 0.669579 -0.430886
vn 0.388591 0.717584 -0.577987
vn 0.556602 0.700402 -0.446801
vn -0.511890 0.109198 -0.852083
vn -0.432098 0.156199 -0.888196
vn -0.361698 0.001600 -0.932294
vn -0.481712 -0.046001 -0.875121
vn -0.322095 0.115098 -0.939685
vn -0.297798 0.298698 -0.906695
vn -0.297798 0.298698 -0.906695
vn -0.019600 0.730902 -0.682201
vn -0.140499 0.714296 -0.685596
vn -0.076598 0.584486 -0.807780
vn -0.140499 0.714296 -0.685596
vn 0.363610 0.871024 -0.330309
vn -0.159608 0.560628 -0.812540
vn 0.124196 0.758374 -0.639878
vn 0.293212 0.821634 -0.488820
vn 0.363610 0.871024 -0.330309
vn -0.111601 0.854212 -0.507807
vn 0.213996 0.872785 -0.438693
vn -0.905770 -0.423486 -0.015499
vn -0.910178 -0.397790 0.115497
vn -0.872897 -0.474899 -0.111900
vn -0.910178 -0.397790 0.115497
vn -0.862086 -0.505892 0.029700
vn -0.872897 -0.474899 -0.111900
vn -0.872897 -0.474899 -0.111900
vn -0.862086 -0.505892 0.029700
vn -0.886301 -0.433401 -0.163200
vn -0.872897 -0.474899 -0.111900
vn -0.886301 -0.433401 -0.163200
vn -0.838143 -0.534427 -0.109106
vn -0.848870 -0.311889 0.426785
vn -0.913678 -0.271794 0.302193
vn -0.862086 -0.505892 0.029700
vn -0.886301 -0.433401 -0.163200
vn -0.992222 -0.086202 -0.089802
vn -0.725803 0.283201 -0.626903
vn -0.886301 -0.433401 -0.163200
vn -0.725803 0.283201 -0.626903
vn -0.791207 -0.210702 -0.574105
vn -0.791207 -0.210702 -0.574105
vn -0.725803 0.283201 -0.626903
vn -0.480488 0.359391 -0.799981
vn -0.992222 -0.086202 -0.089802
vn -0.874727 0.443914 0.194406
vn -0.779689 0.562892 -0.274296
vn -0.992222 -0.086202 -0.089802
vn -0.779689 0.562892 -0.274296
vn -0.725803 0.283201 -0.626903
vn -0.725803 0.283201 -0.626903
vn -0.779689 0.562892 -0.274296
vn -0.239604 0.616011 -0.750413
vn -0.725803 0.283201 -0.626903
vn -0.239604 0.616011 -0.750413
vn -0.480488 0.359391 -0.799981
vn -0.485289 -0.676784 0.553587
vn -0.121605 -0.555122 0.822832
vn -0.395909 -0.637014 0.661415
vn 0.070502 -0.461712 0.884224
vn -0.174999 -0.413999 0.893297
vn -0.281099 -0.383099 0.879897
vn -0.281099 -0.383099 0.879897
vn -0.174999 -0.413999 0.893297
vn -0.519295 -0.200298 0.830791
vn -0.174999 -0.413999 0.893297
vn -0.464306 -0.245703 0.850911
vn -0.519295 -0.200298 0.830791
vn -0.581231 -0.382121 0.718439
vn -0.650180 -0.123496 0.749677
vn -0.584308 -0.420306 0.694210
vn 0.743977 -0.055698 0.665880
vn 0.850957 0.137293 0.506974
vn 0.777201 -0.055500 0.626801
vn 0.933827 0.079802 0.348710
vn 0.789530 0.562422 0.245609
vn 0.811014 0.480308 0.334006
vn 0.788510 0.614908 0.011800
vn 0.747198 0.660299 0.075500
vn 0.730011 0.660010 0.177403
vn 0.048999 -0.835181 0.547788
vn -0.145899 -0.959897 0.239399
vn 0.367499 -0.832398 0.414799
vn 0.367499 -0.832398 0.414799
vn 0.356104 -0.924110 0.138602
vn 0.638291 -0.724989 0.258796
vn -0.143901 -0.969109 -0.200302
vn -0.120094 -0.897058 -0.425280
vn 0.200593 -0.928568 -0.312289
vn 0.356104 -0.924110 0.138602
vn 0.200593 -0.928568 -0.312289
vn 0.598598 -0.791597 -0.122700
vn -0.079197 -0.430383 -0.899165
vn -0.103097 -0.002400 -0.994668
vn -0.099499 -0.242297 -0.965087
vn 0.322391 -0.732179 -0.599982
vn 0.409993 -0.420092 -0.809585
vn 0.669434 -0.602030 -0.435222
vn 0.669434 -0.602030 -0.435222
vn 0.409993 -0.420092 -0.809585
vn 0.684160 -0.508770 -0.522569
vn 0.669434 -0.602030 -0.435222
vn 0.684160 -0.508770 -0.522569
vn 0.720996 -0.626396 -0.296298
vn 0.048999 -0.835181 0.547788
vn -0.162807 -0.885039 0.436119
vn -0.145899 -0.959897 0.239399
vn -0.162807 -0.885039 0.436119
vn -0.493387 -0.869677 0.015200
vn -0.145899 -0.959897 0.239399
vn -0.493387 -0.869677 0.015200
vn -0.771962 -0.610270 -0.177891
vn -0.466310 -0.879019 -0.099402
vn -0.493387 -0.869677 0.015200
vn -0.466310 -0.879019 -0.099402
vn -0.143901 -0.969109 -0.200302
vn -0.859451 -0.510271 0.031098
vn -0.789697 -0.613497 -0.000400
vn -0.860863 -0.479779 -0.169493
vn -0.771962 -0.610270 -0.177891
vn -0.860863 -0.479779 -0.169493
vn -0.816283 -0.562788 -0.130197
vn -0.789697 -0.613497 -0.000400
vn -0.834363 -0.440780 -0.330985
vn -0.860863 -0.479779 -0.169493
vn -0.816283 -0.562788 -0.130197
vn -0.868523 -0.419611 -0.263807
vn -0.880284 -0.256095 -0.399393
vn -0.620589 -0.744087 0.247396
vn -0.632293 -0.568894 0.525894
vn -0.859451 -0.510271 0.031098
vn -0.405599 -0.605199 0.684999
vn -0.329793 -0.730184 0.598387
vn -0.467995 -0.480494 0.741691
vn -0.467995 -0.480494 0.741691
vn -0.329793 -0.730184 0.598387
vn -0.215800 -0.678799 0.701899
vn -0.632293 -0.568894 0.525894
vn -0.595727 -0.697632 0.398018
vn -0.859451 -0.510271 0.031098
vn -0.329793 -0.730184 0.598387
vn -0.186405 -0.722821 0.665419
vn -0.215800 -0.678799 0.701899
vn 0.072496 -0.887651 0.454775
vn 0.258203 -0.856509 0.446905
vn -0.236207 -0.693022 0.681122
vn -0.236207 -0.693022 0.681122
vn 0.107098 -0.677285 0.727884
vn -0.405599 -0.605199 0.684999
vn -0.158502 -0.801211 0.577008
vn -0.159503 -0.690513 0.705514
vn -0.445801 -0.734802 0.511202
vn 0.275094 -0.823781 0.495689
vn 0.589287 -0.747284 0.307094
vn 0.481104 -0.822007 0.304703
vn 0.638291 -0.724989 0.258796
vn 0.708272 -0.705372 -0.028299
vn 0.642418 -0.724220 0.250607
vn 0.638291 -0.724989 0.258796
vn 0.642418 -0.724220 0.250607
vn 0.589287 -0.747284 0.307094
vn 0.589287 -0.747284 0.307094
vn 0.587889 -0.787785 0.183797
vn 0.481104 -0.822007 0.304703
vn 0.524137 -0.800657 0.290221
vn 0.761574 -0.629978 0.152095
vn 0.665508 -0.516306 0.539006
s off
g asteroid1:asteroid
usemtl blinn1SG
f 12/27/1 22/29/2 1/2/3
f 22/29/4 2/3/5 1/2/6
f 1/2/7 2/3/8 4/5/9
f 1/2/10 4/5/11 5/6/12
f 22/29/13 3/4/14 2/3/15
f 12/1/16 1/2/17 5/6/18
f 12/1/19 5/6/20 11/7/21
f 11/7/22 5/6/23 6/8/24
f 5/6/25 8/10/26 6/8/27
f 6/8/28 8/10/29 7/9/30
f 7/9/31 8/10/32 10/12/33
f 5/6/34 9/11/35 8/10/36
f 8/10/37 9/11/38 32/39/39
f 6/13/40 7/16/41 11/14/42
f 11/14/43 7/16/44 12/15/45
f 12/15/46 7/16/47 13/17/48
f 7/16/49 10/18/50 14/20/51
f 7/16/52 14/20/53 15/21/54
f 7/16/55 15/21/56 13/17/57
f 13/17/58 15/21/59 18/24/60
f 12/15/61 13/17/62 17/23/63
f 12/15/64 17/23/65 16/22/66
f 13/17/67 18/24/68 17/23/69
f 17/23/70 18/24/71 19/25/72
f 17/23/73 19/25/74 20/26/75
f 16/22/76 22/29/77 12/27/78
f 16/22/79 17/23/80 21/28/81
f 16/22/82 21/28/83 22/29/84
f 17/23/85 20/26/86 21/28/87
f 20/26/88 42/51/89 21/28/90
f 21/28/91 42/51/92 22/29/93
f 22/29/94 23/30/95 3/4/96
f 23/30/97 56/68/98 24/31/99
f 23/30/100 24/31/101 3/4/102
f 24/31/103 27/34/104 3/4/105
f 3/4/106 27/34/107 46/55/108
f 56/68/109 25/32/110 24/31/111
f 24/31/112 25/32/113 26/33/114
f 24/31/115 26/33/116 27/34/117
f 5/6/118 4/5/119 47/56/120
f 47/56/121 28/35/122 49/58/123
f 47/56/124 46/55/125 29/36/126
f 47/56/127 29/36/128 28/35/129
f 49/58/130 28/35/131 31/38/132
f 28/35/133 29/36/134 30/37/135
f 28/35/136 30/37/137 31/38/138
f 32/39/139 33/40/140 34/41/141
f 34/41/142 33/40/143 50/42/144
f 33/40/145 31/38/146 35/43/147
f 33/40/148 36/44/149 37/45/150
f 33/40/151 37/45/152 50/42/153
f 15/21/154 38/47/155 55/67/156
f 38/47/157 40/49/158 55/67/159
f 55/67/160 40/49/161 54/66/162
f 37/46/163 39/48/164 38/47/165
f 38/47/166 39/48/167 40/49/168
f 40/49/169 41/50/170 54/66/171
f 20/26/172 19/25/173 42/51/174
f 19/25/175 43/52/176 42/51/177
f 43/52/178 44/53/179 42/51/180
f 42/51/181 44/53/182 56/68/183
f 44/53/184 45/54/185 25/32/186
f 47/56/187 48/57/188 46/55/189
f 46/55/190 48/57/191 3/4/192
f 47/56/193 4/5/194 2/3/195
f 47/56/196 2/3/197 48/57/198
f 48/57/199 2/3/200 3/4/201
f 33/40/202 49/58/203 31/38/204
f 33/40/205 32/39/206 49/58/207
f 49/58/208 32/39/209 9/11/210
f 49/58/211 9/11/212 47/56/213
f 32/39/214 10/12/215 8/10/216
f 47/56/217 9/11/218 5/6/219
f 37/46/220 38/47/221 50/59/222
f 38/47/223 52/63/224 50/59/225
f 50/59/226 52/63/227 51/61/228
f 50/59/229 51/61/230 34/60/231
f 38/47/232 15/21/233 52/63/234
f 51/61/235 52/63/236 53/64/237
f 51/62/238 53/65/239 34/41/240
f 34/41/241 53/65/242 32/39/243
f 52/63/244 15/21/245 14/20/246
f 52/63/247 14/20/248 53/64/249
f 53/65/250 14/19/251 10/12/252
f 53/65/253 10/12/254 32/39/255
f 41/50/256 43/52/257 54/66/258
f 43/52/259 19/25/260 54/66/261
f 54/66/262 19/25/263 55/67/264
f 19/25/265 18/24/266 55/67/267
f 18/24/268 15/21/269 55/67/270
f 25/32/271 56/68/272 44/53/273
f 56/68/274 23/30/275 42/51/276
f 23/30/277 22/29/278 42/51/279
f 57/69/280 58/70/281 63/82/282
f 63/82/283 58/70/284 59/71/285
f 58/70/286 35/43/287 30/37/288
f 58/70/289 30/37/290 59/71/291
f 35/43/292 31/38/293 30/37/294
f 30/37/295 29/36/296 59/71/297
f 59/71/298 29/36/299 46/55/300
f 59/71/301 46/55/302 27/34/303
f 57/72/304 62/73/305 58/70/306
f 62/73/307 60/75/308 58/70/309
f 60/75/310 61/77/311 35/43/312
f 60/75/313 35/43/314 58/70/315
f 61/76/316 39/48/317 36/78/318
f 61/77/319 36/44/320 35/43/321
f 39/48/322 37/46/323 36/78/324
f 35/43/325 36/44/326 33/40/327
f 60/74/328 62/79/329 61/76/330
f 44/53/331 41/50/332 62/79/333
f 62/79/334 41/50/335 39/48/336
f 62/79/337 39/48/338 61/76/339
f 41/50/340 40/49/341 39/48/342
f 57/80/343 45/54/344 62/79/345
f 62/79/346 45/54/347 44/53/348
f 44/53/349 43/52/350 41/50/351
f 57/81/352 63/82/353 45/54/354
f 59/71/355 27/34/356 26/33/357
f 59/71/358 26/33/359 63/82/360
f 63/82/361 26/33/362 45/54/363
f 45/54/364 26/33/365 25/32/366
